<svg width="24" height="24" viewBox="0 0 24 24" fill="none" xmlns="http://www.w3.org/2000/svg">
<g clip-path="url(#clip0_3695_17056)">
<g opacity="0.5">
<path d="M23.4985 13.8643C23.3381 14.0965 22.8402 14.5382 22.8402 14.5382C22.8402 14.5382 23.067 13.904 23.2219 13.6662C23.3824 13.4283 23.5151 13.366 23.5926 13.417C23.67 13.4736 23.6534 13.6265 23.4985 13.8587V13.8643Z" fill="#DA291C"/>
<path d="M23.034 13.4453C23.0119 13.7284 22.7906 14.3683 22.7906 14.3683C22.7906 14.3683 22.6744 13.7058 22.6965 13.417C22.7187 13.1339 22.8072 13.0036 22.8957 13.015C22.9897 13.0206 23.0506 13.1622 23.0285 13.4453H23.034Z" fill="#DA291C"/>
<path d="M22.431 13.315C22.5527 13.5755 22.6744 14.238 22.6744 14.238C22.6744 14.238 22.2484 13.7227 22.1323 13.4623C22.0106 13.2018 22.0272 13.0489 22.1101 13.0093C22.1931 12.9696 22.3204 13.0546 22.4365 13.315H22.431Z" fill="#DA291C"/>
<path d="M21.8443 13.5133C22.0767 13.6775 22.5026 14.1871 22.5026 14.1871C22.5026 14.1871 21.883 13.955 21.6507 13.7964C21.4183 13.6379 21.3575 13.4963 21.4073 13.417C21.4626 13.3378 21.612 13.3547 21.8388 13.5133H21.8443Z" fill="#DA291C"/>
<path d="M21.4299 13.989C21.7065 14.0116 22.3316 14.2381 22.3316 14.2381C22.3316 14.2381 21.6844 14.357 21.4022 14.3344C21.1256 14.3117 20.9984 14.2211 21.0095 14.1305C21.015 14.0343 21.1533 13.972 21.4299 13.9946V13.989Z" fill="#DA291C"/>
<path d="M21.3078 14.6119C21.5623 14.4873 22.2095 14.3627 22.2095 14.3627C22.2095 14.3627 21.7061 14.7988 21.4516 14.9177C21.1971 15.0422 21.0478 15.0253 21.009 14.9403C20.9703 14.8554 21.0533 14.7251 21.3078 14.6062V14.6119Z" fill="#DA291C"/>
<path d="M21.5017 15.212C21.6621 14.9742 22.16 14.5381 22.16 14.5381C22.16 14.5381 21.9332 15.1724 21.7783 15.4102C21.6234 15.648 21.4851 15.7103 21.4077 15.6593C21.3302 15.6027 21.3468 15.4498 21.5017 15.2177V15.212Z" fill="#DA291C"/>
<path d="M21.9664 15.631C21.9886 15.3479 22.2098 14.708 22.2098 14.708C22.2098 14.708 22.326 15.3705 22.3039 15.6593C22.2818 15.9425 22.1932 16.0727 22.1047 16.0614C22.0107 16.0557 21.9498 15.9141 21.972 15.631H21.9664Z" fill="#DA291C"/>
<path d="M22.5695 15.7557C22.4478 15.4952 22.326 14.8327 22.326 14.8327C22.326 14.8327 22.752 15.348 22.8682 15.6085C22.9899 15.869 22.9733 16.0218 22.8903 16.0615C22.8073 16.1011 22.6801 16.0162 22.5639 15.7557H22.5695Z" fill="#DA291C"/>
<path d="M23.1558 15.5573C22.9234 15.3931 22.4974 14.8835 22.4974 14.8835C22.4974 14.8835 23.117 15.1156 23.3494 15.2742C23.5817 15.4384 23.6426 15.5743 23.5928 15.6536C23.5375 15.7329 23.3881 15.7159 23.1613 15.5573H23.1558Z" fill="#DA291C"/>
<path d="M23.5709 15.0874C23.2943 15.0648 22.6692 14.8383 22.6692 14.8383C22.6692 14.8383 23.3164 14.7194 23.5986 14.742C23.8807 14.7647 24.0024 14.8553 23.9914 14.9459C23.9858 15.0421 23.8475 15.1044 23.5709 15.0818V15.0874Z" fill="#DA291C"/>
<path d="M23.6921 14.4645C23.4377 14.5891 22.7904 14.7137 22.7904 14.7137C22.7904 14.7137 23.2938 14.2777 23.5483 14.1588C23.8028 14.0342 23.9521 14.0512 23.9909 14.1361C24.0296 14.221 23.9466 14.3513 23.6921 14.4702V14.4645Z" fill="#DA291C"/>
</g>
<path d="M8 5C8 3.93913 8.42142 2.92172 9.17157 2.17157C9.92171 1.42143 10.9391 1 12 1C13.0609 1 14.0783 1.42143 14.8284 2.17157C15.5786 2.92172 16 3.93913 16 5" stroke="#DD1219" stroke-width="1.5" stroke-linecap="round" stroke-linejoin="round"/>
<path d="M16.2834 21C18.0941 21 18.9995 21 19.6678 20.6382C20.255 20.3204 20.7193 19.8157 20.9873 19.2042C21.2923 18.5082 21.2172 17.6059 21.0668 15.8014L20.3668 7.40138C20.2374 5.84875 20.1727 5.07243 19.8289 4.48486C19.5261 3.96744 19.0753 3.5526 18.5345 3.29385C17.9204 3 17.1414 3 15.5834 3L8.41664 3C6.85862 3 6.07962 3 5.46552 3.29384C4.92474 3.5526 4.4739 3.96744 4.17113 4.48486C3.8273 5.07243 3.7626 5.84875 3.63322 7.40138L2.93322 15.8014C2.78284 17.6059 2.70765 18.5082 3.01268 19.2042C3.28069 19.8157 3.74503 20.3204 4.33219 20.6382C5.00047 21 5.90586 21 7.71664 21H16.2834Z" fill="#AD0820"/>
<path d="M16.2834 21C18.0941 21 18.9995 21 19.6678 20.6382C20.255 20.3204 20.7193 19.8157 20.9873 19.2042C21.2923 18.5082 21.2172 17.6059 21.0668 15.8014L20.3668 7.40138C20.2374 5.84875 20.1727 5.07243 19.8289 4.48486C19.5261 3.96744 19.0753 3.5526 18.5345 3.29385C17.9204 3 17.1414 3 15.5834 3L8.41664 3C6.85862 3 6.07962 3 5.46552 3.29384C4.92474 3.5526 4.4739 3.96744 4.17113 4.48486C3.8273 5.07243 3.7626 5.84875 3.63322 7.40138L2.93322 15.8014C2.78284 17.6059 2.70765 18.5082 3.01268 19.2042C3.28069 19.8157 3.74503 20.3204 4.33219 20.6382C5.00047 21 5.90586 21 7.71664 21H16.2834Z" stroke="#AD0820" stroke-width="1.2" stroke-linecap="round" stroke-linejoin="round"/>
<path d="M12 18C15.3137 18 18 15.3137 18 12C18 8.68629 15.3137 6 12 6C8.68629 6 6 8.68629 6 12C6 15.3137 8.68629 18 12 18Z" fill="#DD1219"/>
<path d="M12.0025 17.9899V18C12.0025 18 12.0025 17.995 12.0025 17.9899C11.8279 17.4164 11.4437 14.2063 6 12.0327C11.1593 10.3623 11.9376 6.38239 11.9975 6.01509C12.0624 6.39748 12.8457 10.3623 18 12.0327C12.5563 14.2063 12.1721 17.4164 11.9975 17.9899H12.0025Z" fill="#FFCCB6"/>
<circle opacity="0.7" cx="3.5" cy="0.5" r="0.5" transform="rotate(90 3.5 0.5)" fill="#DA291C"/>
<path opacity="0.3" d="M1.00042 6.99832V7C1.00042 7 1.00042 6.99916 1.00042 6.99832C0.97131 6.90273 0.907276 6.36771 0 6.00545C0.859875 5.72704 0.989605 5.06373 0.999584 5.00252C1.0104 5.06625 1.14096 5.72704 2 6.00545C1.09272 6.36771 1.02869 6.90273 0.999584 6.99832H1.00042Z" fill="#DA291C"/>
</g>
<defs>
<clipPath id="clip0_3695_17056">
<rect width="24" height="24" fill="white"/>
</clipPath>
</defs>
</svg>
