<svg width="24" height="24" viewBox="0 0 24 24" fill="none" xmlns="http://www.w3.org/2000/svg">
<path d="M6.16146 2H17.8385C18.3657 1.99998 18.8205 1.99997 19.195 2.03057C19.5904 2.06287 19.9836 2.13419 20.362 2.32698C20.9265 2.6146 21.3854 3.07355 21.673 3.63803C21.8658 4.01641 21.9371 4.40963 21.9694 4.80497C22 5.17954 22 5.6343 22 6.16144L22 7C22 7.9263 21.0031 9 19.3333 9C17.6636 9 18.1905 9 16.5 9C15 9 16.219 9 15.6667 9C15.1144 9 15 9 14.5 9C12.5 9 13.6697 9 12 9C10.3303 9 10.6667 9 9.5 9C8.66666 9 8.88562 9 8.33333 9C7.78105 9 8.33333 9 7 9C4.66667 9 6.33641 9 4.66667 9C2.99692 9 2 7.9263 2 7V6.16142C1.99998 5.63431 1.99997 5.17953 2.03057 4.80497C2.06287 4.40963 2.13419 4.01641 2.32698 3.63803C2.6146 3.07355 3.07355 2.6146 3.63803 2.32698C4.01641 2.13419 4.40963 2.06287 4.80497 2.03057C5.17953 1.99997 5.63434 1.99998 6.16146 2Z" fill="#AD0820"/>
<path fill-rule="evenodd" clip-rule="evenodd" d="M19.3333 11C20.2837 11 21.2191 10.7429 22 10.2821V17.8386C22 18.3657 22 18.8205 21.9694 19.195C21.9371 19.5904 21.8658 19.9836 21.673 20.362C21.3854 20.9265 20.9265 21.3854 20.362 21.673C19.9836 21.8658 19.5904 21.9371 19.195 21.9694C18.8205 22 18.3657 22 17.8386 22H6.16144C5.6343 22 5.17954 22 4.80497 21.9694C4.40963 21.9371 4.01641 21.8658 3.63803 21.673C3.07355 21.3854 2.6146 20.9265 2.32698 20.362C2.13419 19.9836 2.06287 19.5904 2.03057 19.195C1.99997 18.8205 1.99998 18.3657 2 17.8386V10.2821C2.78088 10.7429 3.71628 11 4.66667 11C6.07207 11 6.16144 11 8.33333 11C12 11 10.5946 11 12 11C13.4054 11 12 11 15.6667 11C19.3333 11 17.9279 11 19.3333 11Z" fill="#AD0820"/>
<mask id="path-2-inside-1_3695_16568" fill="white">
<path d="M8 16C8 14.8954 8.89543 14 10 14H14C15.1046 14 16 14.8954 16 16V22H8V16Z"/>
</mask>
<path d="M8 16C8 14.8954 8.89543 14 10 14H14C15.1046 14 16 14.8954 16 16V22H8V16Z" fill="#DD1219"/>
<path d="M7 16C7 14.3431 8.34315 13 10 13H14C15.6569 13 17 14.3431 17 16H15C15 15.4477 14.5523 15 14 15H10C9.44772 15 9 15.4477 9 16H7ZM16 22H8H16ZM7 22V16C7 14.3431 8.34315 13 10 13V15C9.44772 15 9 15.4477 9 16V22H7ZM14 13C15.6569 13 17 14.3431 17 16V22H15V16C15 15.4477 14.5523 15 14 15V13Z" fill="#FFCCB6" mask="url(#path-2-inside-1_3695_16568)"/>
<mask id="path-4-inside-2_3695_16568" fill="white">
<path d="M8 16C8 14.8954 8.89543 14 10 14H14C15.1046 14 16 14.8954 16 16V22H8V16Z"/>
</mask>
<path d="M8 16C8 14.8954 8.89543 14 10 14H14C15.1046 14 16 14.8954 16 16V22H8V16Z" fill="#DD1219"/>
<path d="M6.5 16C6.5 14.067 8.067 12.5 10 12.5H14C15.933 12.5 17.5 14.067 17.5 16H14.5C14.5 15.7239 14.2761 15.5 14 15.5H10C9.72386 15.5 9.5 15.7239 9.5 16H6.5ZM16 22H8H16ZM6.5 22V16C6.5 14.067 8.067 12.5 10 12.5V15.5C9.72386 15.5 9.5 15.7239 9.5 16V22H6.5ZM14 12.5C15.933 12.5 17.5 14.067 17.5 16V22H14.5V16C14.5 15.7239 14.2761 15.5 14 15.5V12.5Z" fill="#FFCCB6" mask="url(#path-4-inside-2_3695_16568)"/>
<circle opacity="0.7" cx="20.5" cy="0.5" r="0.5" fill="#DA291C"/>
<g opacity="0.5">
<path d="M2.44091 0.844449C2.28417 1.07127 1.79774 1.50278 1.79774 1.50278C1.79774 1.50278 2.01934 0.883174 2.17067 0.650821C2.32741 0.418468 2.45712 0.357614 2.53279 0.407404C2.60845 0.462726 2.59224 0.612096 2.44091 0.838917V0.844449Z" fill="#DA291C"/>
<path d="M1.98712 0.435028C1.9655 0.711639 1.74931 1.33678 1.74931 1.33678C1.74931 1.33678 1.63581 0.68951 1.65743 0.407367C1.67905 0.130756 1.76553 0.00351474 1.852 0.0145792C1.94388 0.0201114 2.00333 0.158417 1.98172 0.435028H1.98712Z" fill="#DA291C"/>
<path d="M1.39807 0.30779C1.51697 0.562272 1.63588 1.20954 1.63588 1.20954C1.63588 1.20954 1.21971 0.70611 1.10621 0.451628C0.987311 0.197146 1.00352 0.0477756 1.0846 0.00905003C1.16567 -0.0296755 1.28998 0.0533078 1.40347 0.30779H1.39807Z" fill="#DA291C"/>
<path d="M0.824849 0.501478C1.05185 0.661912 1.46801 1.15981 1.46801 1.15981C1.46801 1.15981 0.862683 0.932991 0.635684 0.778089C0.408686 0.623187 0.349233 0.484881 0.397876 0.40743C0.451923 0.329979 0.597851 0.346576 0.819445 0.501478H0.824849Z" fill="#DA291C"/>
<path d="M0.419921 0.966125C0.690157 0.988254 1.30089 1.20954 1.30089 1.20954C1.30089 1.20954 0.668539 1.32572 0.392898 1.30359C0.122662 1.28146 -0.00164717 1.19295 0.00916228 1.10443C0.014567 1.01038 0.149685 0.949528 0.419921 0.971657V0.966125Z" fill="#DA291C"/>
<path d="M0.300697 1.57478C0.549314 1.45307 1.18167 1.33136 1.18167 1.33136C1.18167 1.33136 0.689837 1.75734 0.44122 1.87352C0.192602 1.99523 0.0466746 1.97863 0.00884147 1.89565C-0.0289916 1.81266 0.0520793 1.68542 0.300697 1.56925V1.57478Z" fill="#DA291C"/>
<path d="M0.490244 2.16108C0.646982 1.92873 1.13341 1.50275 1.13341 1.50275C1.13341 1.50275 0.911813 2.12235 0.760481 2.35471C0.609148 2.58706 0.47403 2.64792 0.398364 2.59813C0.322698 2.5428 0.338912 2.39343 0.490244 2.16661V2.16108Z" fill="#DA291C"/>
<path d="M0.944366 2.57045C0.965985 2.29384 1.18217 1.6687 1.18217 1.6687C1.18217 1.6687 1.29567 2.31597 1.27406 2.59811C1.25244 2.87472 1.16596 3.00197 1.07948 2.9909C0.987604 2.98537 0.928152 2.84706 0.949771 2.57045H0.944366Z" fill="#DA291C"/>
<path d="M1.5334 2.69222C1.4145 2.43774 1.29559 1.79047 1.29559 1.79047C1.29559 1.79047 1.71176 2.2939 1.82526 2.54838C1.94416 2.80286 1.92795 2.95223 1.84688 2.99096C1.7658 3.02968 1.6415 2.9467 1.528 2.69222H1.5334Z" fill="#DA291C"/>
<path d="M2.10608 2.49854C1.87909 2.33811 1.46292 1.84021 1.46292 1.84021C1.46292 1.84021 2.06825 2.06703 2.29525 2.22193C2.52225 2.38237 2.5817 2.51514 2.53306 2.59259C2.47901 2.67004 2.33308 2.65345 2.11149 2.49854H2.10608Z" fill="#DA291C"/>
<path d="M2.51171 2.03936C2.24147 2.01724 1.63074 1.79595 1.63074 1.79595C1.63074 1.79595 2.26309 1.67977 2.53873 1.7019C2.81437 1.72403 2.93328 1.81254 2.92247 1.90106C2.91706 1.99511 2.78194 2.05596 2.51171 2.03383V2.03936Z" fill="#DA291C"/>
<path d="M2.63018 1.43083C2.38156 1.55254 1.74921 1.67425 1.74921 1.67425C1.74921 1.67425 2.24104 1.24827 2.48965 1.13209C2.73827 1.01038 2.8842 1.02698 2.92203 1.10996C2.95987 1.19294 2.87879 1.32018 2.63018 1.43636V1.43083Z" fill="#DA291C"/>
</g>
<path opacity="0.3" d="M22.5006 2.99748V3C22.5006 3 22.5006 2.99874 22.5006 2.99748C22.457 2.85409 22.3609 2.05157 21 1.50818C22.2898 1.09057 22.4844 0.0955973 22.4994 0.00377343C22.5156 0.0993709 22.7114 1.09057 24 1.50818C22.6391 2.05157 22.543 2.85409 22.4994 2.99748H22.5006Z" fill="#DA291C"/>
</svg>
