<svg width="24" height="24" viewBox="0 0 24 24" fill="none" xmlns="http://www.w3.org/2000/svg">
<circle cx="12" cy="12" r="10" fill="#FFCCB6"/>
<path fill-rule="evenodd" clip-rule="evenodd" d="M7 9.5C7 6.73858 9.23858 4.5 12 4.5C14.7614 4.5 17 6.73858 17 9.5C17 12.2614 14.7614 14.5 12 14.5C9.23858 14.5 7 12.2614 7 9.5Z" fill="#AD0820"/>
<path fill-rule="evenodd" clip-rule="evenodd" d="M12 1C5.92487 1 1 5.92487 1 12C1 18.0751 5.92487 23 12 23C18.0751 23 23 18.0751 23 12C23 5.92487 18.0751 1 12 1ZM3 12C3 7.02944 7.02944 3 12 3C16.9706 3 21 7.02944 21 12C21 14.2211 20.1954 16.2543 18.8618 17.824C17.9457 16.7114 16.5564 16 15 16H9.00005C7.44368 16 6.05439 16.7114 5.13825 17.8241C3.8046 16.2543 3 14.2211 3 12Z" fill="#AD0820"/>
<circle opacity="0.7" cx="23.5" cy="5.5" r="0.5" transform="rotate(90 23.5 5.5)" fill="#DA291C"/>
<circle opacity="0.5" cx="1" cy="2" r="1" transform="rotate(90 1 2)" fill="#DA291C"/>
<g opacity="0.5">
<path d="M22.4409 0.844449C22.2842 1.07127 21.7978 1.50278 21.7978 1.50278C21.7978 1.50278 22.0193 0.883174 22.1707 0.650821C22.3274 0.418468 22.4571 0.357614 22.5328 0.407404C22.6085 0.462726 22.5922 0.612096 22.4409 0.838917V0.844449Z" fill="#DA291C"/>
<path d="M21.9871 0.435028C21.9655 0.711639 21.7493 1.33678 21.7493 1.33678C21.7493 1.33678 21.6358 0.68951 21.6574 0.407367C21.679 0.130756 21.7655 0.00351474 21.852 0.0145792C21.9439 0.0201114 22.0033 0.158417 21.9817 0.435028H21.9871Z" fill="#DA291C"/>
<path d="M21.3981 0.30779C21.517 0.562272 21.6359 1.20954 21.6359 1.20954C21.6359 1.20954 21.2197 0.70611 21.1062 0.451628C20.9873 0.197146 21.0035 0.0477756 21.0846 0.00905003C21.1657 -0.0296755 21.29 0.0533078 21.4035 0.30779H21.3981Z" fill="#DA291C"/>
<path d="M20.8249 0.501478C21.0519 0.661912 21.468 1.15981 21.468 1.15981C21.468 1.15981 20.8627 0.932991 20.6357 0.778089C20.4087 0.623187 20.3492 0.484881 20.3979 0.40743C20.4519 0.329979 20.5979 0.346576 20.8195 0.501478H20.8249Z" fill="#DA291C"/>
<path d="M20.4199 0.966125C20.6902 0.988254 21.3009 1.20954 21.3009 1.20954C21.3009 1.20954 20.6685 1.32572 20.3929 1.30359C20.1227 1.28146 19.9984 1.19295 20.0092 1.10443C20.0146 1.01038 20.1497 0.949528 20.4199 0.971657V0.966125Z" fill="#DA291C"/>
<path d="M20.3007 1.57478C20.5493 1.45307 21.1817 1.33136 21.1817 1.33136C21.1817 1.33136 20.6898 1.75734 20.4412 1.87352C20.1926 1.99523 20.0467 1.97863 20.0088 1.89565C19.971 1.81266 20.0521 1.68542 20.3007 1.56925V1.57478Z" fill="#DA291C"/>
<path d="M20.4902 2.16108C20.647 1.92873 21.1334 1.50275 21.1334 1.50275C21.1334 1.50275 20.9118 2.12235 20.7605 2.35471C20.6091 2.58706 20.474 2.64792 20.3984 2.59813C20.3227 2.5428 20.3389 2.39343 20.4902 2.16661V2.16108Z" fill="#DA291C"/>
<path d="M20.9444 2.57045C20.966 2.29384 21.1822 1.6687 21.1822 1.6687C21.1822 1.6687 21.2957 2.31597 21.2741 2.59811C21.2524 2.87472 21.166 3.00197 21.0795 2.9909C20.9876 2.98537 20.9282 2.84706 20.9498 2.57045H20.9444Z" fill="#DA291C"/>
<path d="M21.5334 2.69222C21.4145 2.43774 21.2956 1.79047 21.2956 1.79047C21.2956 1.79047 21.7117 2.2939 21.8252 2.54838C21.9442 2.80286 21.9279 2.95223 21.8469 2.99096C21.7658 3.02968 21.6415 2.9467 21.528 2.69222H21.5334Z" fill="#DA291C"/>
<path d="M22.1061 2.49854C21.8791 2.33811 21.4629 1.84021 21.4629 1.84021C21.4629 1.84021 22.0683 2.06703 22.2952 2.22193C22.5222 2.38237 22.5817 2.51514 22.5331 2.59259C22.479 2.67004 22.3331 2.65345 22.1115 2.49854H22.1061Z" fill="#DA291C"/>
<path d="M22.5117 2.03936C22.2415 2.01724 21.6307 1.79595 21.6307 1.79595C21.6307 1.79595 22.2631 1.67977 22.5387 1.7019C22.8144 1.72403 22.9333 1.81254 22.9225 1.90106C22.9171 1.99511 22.7819 2.05596 22.5117 2.03383V2.03936Z" fill="#DA291C"/>
<path d="M22.6302 1.43083C22.3816 1.55254 21.7492 1.67425 21.7492 1.67425C21.7492 1.67425 22.241 1.24827 22.4897 1.13209C22.7383 1.01038 22.8842 1.02698 22.922 1.10996C22.9599 1.19294 22.8788 1.32018 22.6302 1.43636V1.43083Z" fill="#DA291C"/>
</g>
</svg>
